<svg id="Layer_1" data-name="Layer 1" xmlns="http://www.w3.org/2000/svg" viewBox="0 0 500 500"><defs><style>.cls-1{fill:#ddd;}.cls-2{fill:#c9c9c9;}.cls-3{fill:#444;}.cls-4{fill:#2d2d2d;}.cls-5{fill:none;stroke:#000;stroke-linecap:round;stroke-linejoin:round;stroke-width:15px;}</style></defs><title>football</title><circle class="cls-1" cx="250" cy="250" r="241.52"/><path class="cls-2" d="M401.82,62.18A240.51,240.51,0,0,1,455.52,214c0,133.39-108.13,241.52-241.52,241.52a240.51,240.51,0,0,1-151.82-53.7A241,241,0,0,0,250,491.52c133.39,0,241.52-108.13,241.52-241.52A241,241,0,0,0,401.82,62.18Z"/><polygon class="cls-3" points="250 338.99 335.94 276.55 303.11 175.52 196.89 175.52 164.06 276.55 250 338.99"/><path class="cls-3" d="M146.35,118.2l27.3-97.39a242.11,242.11,0,0,0-126,97.39Z"/><path class="cls-3" d="M326.35,20.81l27.3,97.39H452.4A242.11,242.11,0,0,0,326.35,20.81Z"/><path class="cls-3" d="M94.54,303.29,8.48,250A240.57,240.57,0,0,0,68.73,409.57Z"/><path class="cls-3" d="M431.27,409.57A240.57,240.57,0,0,0,491.52,250l-86.06,53.29Z"/><path class="cls-4" d="M491.52,250l-44.47,27.53a240,240,0,0,1-31.1,69l15.32,63.09h0A240.57,240.57,0,0,0,491.52,250Z"/><path class="cls-3" d="M250,421.29l-85.92,54.48a242.23,242.23,0,0,0,171.84,0Z"/><path class="cls-4" d="M164.08,475.77a242.23,242.23,0,0,0,171.84,0l-49.41-31.33A241.6,241.6,0,0,1,214,455.52c-5.73,0-11.41-.21-17-.6l-32.88,20.85h0Z"/><circle class="cls-5" cx="250" cy="250" r="241.52"/><polygon class="cls-5" points="250 338.99 335.94 276.55 303.11 175.52 196.89 175.52 164.06 276.55 250 338.99"/><line class="cls-5" x1="250" y1="338.99" x2="250" y2="421.29"/><line class="cls-5" x1="303.11" y1="175.52" x2="353.65" y2="118.2"/><line class="cls-5" x1="335.94" y1="276.55" x2="405.46" y2="303.29"/><line class="cls-5" x1="196.89" y1="175.52" x2="146.35" y2="118.2"/><line class="cls-5" x1="164.06" y1="276.55" x2="94.54" y2="303.29"/><path class="cls-5" d="M146.35,118.2l27.3-97.39a242.11,242.11,0,0,0-126,97.39Z"/><path class="cls-5" d="M326.35,20.81l27.3,97.39H452.4A242.11,242.11,0,0,0,326.35,20.81Z"/><path class="cls-5" d="M94.54,303.29,8.48,250A240.57,240.57,0,0,0,68.73,409.57Z"/><path class="cls-5" d="M431.27,409.57A240.57,240.57,0,0,0,491.52,250l-86.06,53.29Z"/><path class="cls-5" d="M250,421.29l-85.92,54.48a242.23,242.23,0,0,0,171.84,0Z"/></svg>