<svg fill="#fff" width="95" height="75" xmlns="http://www.w3.org/2000/svg">
 <g>
  <g id="svg_1" data-name="Layer 2">
   <g id="svg_2">
    <path id="svg_3" d="m93.74359,17.51923a0.32,0.32 0 0 1 0.1,-0.1a15.05,15.05 0 0 0 -2.44,-4.95a23.18,23.18 0 0 0 -6,-5a56.66,56.66 0 0 1 -4.75,-3.47c-0.67,-0.57 -1.32,-1.14 -2,-1.74s-1.81,-2.18 -2.5,-1.17a2,2 0 0 0 -0.29,0.87c-0.41,2.46 -1.37,5.62 -3.71,6.81c-2.78,1.46 -6.27,1.56 -9.33,1.33c-2.27,-0.15 -4.44,-0.63 -6.69,-1a10.83,10.83 0 0 0 -6,0.42c-2.15,0.94 -3.68,2.91 -5,4.79s-2.9,3.77 -4.39,5.54c-9.64,11.47 -20.46,21.67 -31.55,31.61c-1.31,1.18 -2.59,2.38 -3.92,3.52c-0.89,0.79 -1.83,1.54 -2.76,2.29c-3.86,3 -2.76,6.3 -2.12,7.66a0.13,0.13 0 0 0 0,0.06l0,0c9.91,-0.1 83.29,-32.77 93.35,-47.47z"/>
    <path id="svg_4" d="m94.74359,23.08923c-0.07,-0.76 -0.13,-1.5 -0.2,-2.26s-0.22,-1.38 -0.38,-2c-11.57,14.85 -81.66,46.18 -93.18,47.24c0.85,1.43 1.76,1.7 4.64,1.42a1.38,1.38 0 0 1 0.86,0.2a5.71,5.71 0 0 1 0.84,0.72l0.86,0.88c0.23,0.24 0.45,0.5 0.67,0.75s0.37,0.54 0.62,0.66a0.93,0.93 0 0 0 0.47,0.07a4.76,4.76 0 0 0 2.37,-0.74c0.31,-0.21 0.27,-0.5 0.32,-0.83s0.1,-0.58 0.16,-0.88a4.16,4.16 0 0 1 2.45,-3a3.28,3.28 0 0 1 3.26,0.46c0.44,0.36 0.87,0.73 1.29,1.12l0.61,0.59c0.09,0.08 0.17,0.18 0.27,0.27s0.22,0.27 0.43,0.28a2.59,2.59 0 0 0 0.74,-0.07a4.81,4.81 0 0 0 1.36,-0.5a1.76,1.76 0 0 0 0.69,-0.51a0.61,0.61 0 0 0 0.09,-0.4c0,-0.18 0,-0.37 0,-0.55c0,-0.41 0.09,-0.82 0.16,-1.23a3.9,3.9 0 0 1 6.3,-2.62c0.38,0.28 0.73,0.58 1.09,0.89l0.8,0.74c0.31,0.27 0.73,0.12 1.08,0a4.53,4.53 0 0 0 1.34,-0.56c0.39,-0.24 0.71,-0.43 0.72,-0.93c0,-0.12 0,-0.23 0,-0.35l0,-0.76a5.65,5.65 0 0 1 0.82,-3.13a4.25,4.25 0 0 1 2.43,-1.57a6.3,6.3 0 0 1 5,1.22c0.22,0.15 0.49,0.44 0.76,0.43a2.85,2.85 0 0 0 0.75,-0.24a5.36,5.36 0 0 0 1.24,-0.74c0.48,-0.4 0.64,-0.58 0.51,-1.27a6.37,6.37 0 0 1 -0.13,-1.3l0,0a5,5 0 0 1 2,-3.94l1.31,-0.94a80.25,80.25 0 0 1 18.84,-8.74a8.68,8.68 0 0 1 8.42,1.77l0,0c0.07,0.13 0.5,0.09 1,-0.07a4.41,4.41 0 0 0 1.3,-0.61c0.46,-0.3 0.76,-0.59 0.7,-0.73a25,25 0 0 1 0.24,-4.1a2.69,2.69 0 0 1 1.15,-1.84a3,3 0 0 1 3.15,0a25.73,25.73 0 0 1 3.28,2.38c0.06,0.12 0.49,0.09 1,-0.07a4.82,4.82 0 0 0 1.32,-0.62c0.45,-0.29 0.74,-0.59 0.69,-0.72a28.08,28.08 0 0 1 0.11,-3a16.74,16.74 0 0 1 0.24,-1.71a3,3 0 0 1 1.14,-1.64a6.19,6.19 0 0 0 1.37,-2.47a12.67,12.67 0 0 0 0.63,-3.24c0,-0.2 0,-0.41 0,-0.61s0,-0.4 0,-0.6z"/>
   </g>
  </g>
 </g>
</svg>