<?xml version="1.0" encoding="UTF-8" standalone="no" ?>
<!DOCTYPE svg PUBLIC "-//W3C//DTD SVG 1.1//EN" "http://www.w3.org/Graphics/SVG/1.1/DTD/svg11.dtd">
<svg xmlns="http://www.w3.org/2000/svg" xmlns:xlink="http://www.w3.org/1999/xlink" version="1.1" width="310" height="440" viewBox="0 0 310 440" xml:space="preserve">
<defs>
</defs>
<rect x="0" y="0" width="100%" height="100%" fill="transparent"></rect>
<g transform="matrix(1 0 0 1 155 220)" id="6ac5913d-95fa-4db2-b85d-c116979bd28d"  >
<rect style="stroke: none; stroke-width: 1; stroke-dasharray: none; stroke-linecap: butt; stroke-dashoffset: 0; stroke-linejoin: miter; stroke-miterlimit: 4; fill: rgb(255,255,255); fill-rule: nonzero; opacity: 1; visibility: hidden;" vector-effect="non-scaling-stroke"  x="-155" y="-220" rx="0" ry="0" width="310" height="440" />
</g>
<g transform="matrix(0 0 0 0 0 0)" id="66185e37-b82f-4518-a3ce-9c85218a3e9e"  >
</g>
<g transform="matrix(0.85 0 0 0.85 155 220)"  >
<g style="" vector-effect="non-scaling-stroke"   >
		<g transform="matrix(1 0 0 1 0.35 -221.5)"  >
<path style="stroke: none; stroke-width: 1; stroke-dasharray: none; stroke-linecap: butt; stroke-dashoffset: 0; stroke-linejoin: miter; stroke-miterlimit: 4; fill: rgb(255,255,255); fill-rule: nonzero; opacity: 1;" vector-effect="non-scaling-stroke"  transform=" translate(-256.35, -34.5)" d="M 108.4 0 L 131.4 0 L 131.4 22.8 L 152.6 22.8 L 152.6 0 L 175.6 0 L 175.6 69 L 152.6 69 L 152.6 46 L 131.6 46 L 131.6 69 L 108.39999999999999 69 M 206 23 L 185.7 23 L 185.7 0 L 249.39999999999998 0 L 249.39999999999998 23 L 229 23 L 229 69 L 206 69 M 259.5 0 L 283.6 0 L 298.40000000000003 24.3 L 313.2 0 L 337.3 0 L 337.3 69 L 314.3 69 L 314.3 34.8 L 298.2 59.599999999999994 L 282.09999999999997 34.8 L 282.09999999999997 69 L 259.49999999999994 69 M 348.7 0 L 371.7 0 L 371.7 46.2 L 404.3 46.2 L 404.3 69 L 348.7 69" stroke-linecap="round" />
</g>
		<g transform="matrix(1 0 0 1 0 50.3)"  >
<path style="stroke: none; stroke-width: 1; stroke-dasharray: none; stroke-linecap: butt; stroke-dashoffset: 0; stroke-linejoin: miter; stroke-miterlimit: 4; fill: rgb(0,0,0); fill-rule: nonzero; opacity: 1;" vector-effect="non-scaling-stroke"  transform=" translate(-256, -306.3)" d="M 107.6 471 L 74.6 100.60000000000002 L 437.4 100.60000000000002 L 404.4 470.8 L 255.7 512" stroke-linecap="round" />
</g>
		<g transform="matrix(1 0 0 1 74.15 49.75)"  >
<path style="stroke: none; stroke-width: 1; stroke-dasharray: none; stroke-linecap: butt; stroke-dashoffset: 0; stroke-linejoin: miter; stroke-miterlimit: 4; fill: rgb(40,40,40); fill-rule: nonzero; opacity: 1;" vector-effect="non-scaling-stroke"  transform=" translate(-330.15, -305.75)" d="M 256 480.5 L 256 131 L 404.3 131 L 376 447" stroke-linecap="round" />
</g>
		<g transform="matrix(1 0 0 1 -57 48.95)"  >
<path style="stroke: none; stroke-width: 1; stroke-dasharray: none; stroke-linecap: butt; stroke-dashoffset: 0; stroke-linejoin: miter; stroke-miterlimit: 4; fill: rgb(235,235,235); fill-rule: nonzero; opacity: 1;" vector-effect="non-scaling-stroke"  transform=" translate(-199, -304.95)" d="M 142 176.3 L 256 176.3 L 256 221.70000000000002 L 191.8 221.70000000000002 L 196 268.20000000000005 L 256 268.20000000000005 L 256 313.50000000000006 L 154.4 313.50000000000006 M 156.4 336.3 L 202 336.3 L 205.2 372.6 L 256 386.20000000000005 L 256 433.6 L 162.8 407.6" stroke-linecap="round" />
</g>
		<g transform="matrix(1 0 0 1 56.7 48.85)"  >
<path style="stroke: none; stroke-width: 1; stroke-dasharray: none; stroke-linecap: butt; stroke-dashoffset: 0; stroke-linejoin: miter; stroke-miterlimit: 4; fill: rgb(255,255,255); fill-rule: nonzero; opacity: 1;" vector-effect="non-scaling-stroke"  transform=" translate(-312.7, -304.85)" d="M 369.6 176.3 L 255.8 176.3 L 255.8 221.70000000000002 L 365.4 221.70000000000002 M 361.3 268.2 L 255.8 268.2 L 255.8 313.59999999999997 L 311.8 313.59999999999997 L 306.5 372.59999999999997 L 255.8 386.2 L 255.8 433.4 L 348.8 407.59999999999997" stroke-linecap="round" />
</g>
</g>
</g>
</svg>