<?xml version="1.0" encoding="UTF-8" standalone="no" ?>
<!DOCTYPE svg PUBLIC "-//W3C//DTD SVG 1.1//EN" "http://www.w3.org/Graphics/SVG/1.1/DTD/svg11.dtd">
<svg xmlns="http://www.w3.org/2000/svg" xmlns:xlink="http://www.w3.org/1999/xlink" version="1.1" width="660" height="480" viewBox="0 0 660 480" xml:space="preserve">
<defs>
</defs>
<g transform="matrix(1 0 0 1 330 240)" id="e7bc9f3a-cee3-4b35-a162-5c557aafd3b1"  >
<rect style="stroke: none; stroke-width: 1; stroke-dasharray: none; stroke-linecap: butt; stroke-dashoffset: 0; stroke-linejoin: miter; stroke-miterlimit: 4; fill: #9aa0a6; fill-rule: nonzero; opacity: 1; visibility: hidden;" vector-effect="non-scaling-stroke"  x="-330" y="-240" rx="0" ry="0" width="660" height="480" />
</g>
<g transform="matrix(Infinity NaN NaN Infinity 0 0)" id="c4f33e77-588d-4863-9c0a-c9d65346dfcb"  >
</g>
<g transform="matrix(1.41 0 0 1.41 330 240)"  >
<path style="stroke: none; stroke-width: 0; stroke-dasharray: none; stroke-linecap: butt; stroke-dashoffset: 0; stroke-linejoin: miter; stroke-miterlimit: 4; fill: #9aa0a6; fill-rule: nonzero; opacity: 1;" vector-effect="non-scaling-stroke"  transform=" translate(-350, -280)" d="M 350 184.8 C 291.199 184.8 243.6 232.40200000000002 243.6 291.20000000000005 C 243.6 350.00100000000003 291.202 397.6 350 397.6 C 408.801 397.6 456.4 349.99800000000005 456.4 291.20000000000005 C 456.4 232.39900000000006 408.80199999999996 184.80000000000004 350 184.80000000000004 z M 350 375.20000000000005 C 303.52 375.20000000000005 266 337.68000000000006 266 291.20000000000005 C 266 244.72000000000003 303.52 207.20000000000005 350 207.20000000000005 C 396.48 207.20000000000005 434 244.72000000000006 434 291.20000000000005 C 434 337.68000000000006 396.48 375.20000000000005 350 375.20000000000005 z M 534.8 162.40000000000003 L 450.79999999999995 162.40000000000003 L 415.51899999999995 116.47800000000004 C 413.28069999999997 113.67720000000004 409.91739999999993 111.99750000000003 406.55809999999997 111.99750000000003 L 293.43809999999996 112.00140600000003 C 290.07869999999997 112.00140600000003 286.7193 113.68110600000003 284.4772 116.48190600000004 L 249.19619999999998 162.39990600000004 L 165.19619999999998 162.39990600000004 C 140.55519999999999 162.39990600000004 120.39519999999997 182.55990600000004 120.39519999999997 207.20090600000003 L 120.39519999999997 403.20090600000003 C 120.39519999999997 427.84190600000005 140.55519999999999 448.001906 165.19619999999998 448.001906 L 534.7962 448.001906 C 559.4372 448.001906 579.5972 427.841906 579.5972 403.20090600000003 L 579.5972 207.20090600000003 C 579.5972 182.55990600000004 559.4372000000001 162.39990600000004 534.7962 162.39990600000004 z M 557.198 403.20000000000005 C 557.198 415.52000000000004 547.12 425.59800000000007 534.8 425.59800000000007 L 165.19999999999993 425.60190600000004 C 152.87999999999994 425.60190600000004 142.80199999999994 415.52390600000007 142.80199999999994 403.203906 L 142.80199999999994 207.20390600000002 C 142.80199999999994 194.88390600000002 152.87999999999994 184.80590600000002 165.19999999999993 184.80590600000002 L 254.80199999999994 184.80590600000002 C 258.16139999999996 184.80590600000002 261.52079999999995 183.12620600000002 263.76289999999995 180.32540600000002 L 299.04389999999995 134.40340600000002 L 400.96389999999997 134.40340600000002 L 436.2449 180.32540600000002 C 438.48319999999995 183.12620600000002 441.8465 184.80590600000002 445.20579999999995 184.80590600000002 L 534.8077999999999 184.80590600000002 C 547.1278 184.80590600000002 557.2058 194.88390600000002 557.2058 207.20390600000002 z" stroke-linecap="round" />
</g>
<g transform="matrix(0.44 0 0 0.44 1052.53 683.09)"  >
<rect style="stroke: none; stroke-width: 1; stroke-dasharray: none; stroke-linecap: butt; stroke-dashoffset: 0; stroke-linejoin: miter; stroke-miterlimit: 4; fill: rgb(255,255,255); fill-rule: nonzero; opacity: 1; visibility: hidden;" vector-effect="non-scaling-stroke"  x="-540" y="-540" rx="0" ry="0" width="1080" height="1080" />
</g>
</svg>