<svg width="20" height="20" viewBox="0 0 20 20" fill="none" xmlns="http://www.w3.org/2000/svg">
<g id="moon">
<path id="Vector" d="M17.293 13.293C15.8115 13.9631 14.161 14.1659 12.5614 13.8743C10.9617 13.5827 9.48893 12.8106 8.33918 11.6608C7.18943 10.5111 6.41732 9.03827 6.12573 7.43863C5.83413 5.839 6.03689 4.18849 6.707 2.707C5.52756 3.24001 4.49503 4.0512 3.698 5.07096C2.90097 6.09072 2.36323 7.28862 2.13091 8.56189C1.89859 9.83515 1.97863 11.1458 2.36416 12.3813C2.74969 13.6168 3.4292 14.7404 4.3444 15.6556C5.2596 16.5708 6.38316 17.2503 7.61869 17.6358C8.85423 18.0214 10.1648 18.1014 11.4381 17.8691C12.7114 17.6368 13.9093 17.099 14.929 16.302C15.9488 15.505 16.76 14.4724 17.293 13.293V13.293Z" fill="#CC2D4A"/>
</g>
</svg>
