<svg fill="#ffffff" width="75px" height="75px" viewBox="0 0 24.00 24.00" xmlns="http://www.w3.org/2000/svg" transform="rotate(0)matrix(-1, 0, 0, 1, 0, 0)" stroke="#ffffff" stroke-width="0.00024000000000000003">

<g id="SVGRepo_bgCarrier" stroke-width="0"/>

<g id="SVGRepo_tracerCarrier" stroke-linecap="round" stroke-linejoin="round" stroke="#CCCCCC" stroke-width="0.4800000000000001"/>

<g id="SVGRepo_iconCarrier">

<path d="m0 11.617c0-3.763 3.05-6.814 6.813-6.817h10.371c3.765 0 6.817 3.052 6.817 6.817s-3.052 6.817-6.817 6.817h-10.366c-3.763 0-6.814-3.05-6.817-6.813zm6.817 4.543c2.507-.002 4.539-2.035 4.539-4.542 0-2.509-2.034-4.542-4.542-4.542s-4.542 2.034-4.542 4.542c0 1.254.508 2.389 1.329 3.21.822.823 1.958 1.332 3.214 1.332h.003z"/>

</g>

</svg>