<?xml version="1.0" encoding="UTF-8" standalone="no" ?>
<!DOCTYPE svg PUBLIC "-//W3C//DTD SVG 1.1//EN" "http://www.w3.org/Graphics/SVG/1.1/DTD/svg11.dtd">
<svg xmlns="http://www.w3.org/2000/svg" xmlns:xlink="http://www.w3.org/1999/xlink" version="1.1" width="1000" height="920" viewBox="0 0 1000 920" xml:space="preserve">
<desc>Created with Fabric.js 5.2.4</desc>
<defs>
</defs>
<g transform="matrix(1 0 0 1 500 460)" id="d4166489-cda7-4b60-a8f0-be322e042427"  >
<rect style="stroke: none; stroke-width: 1; stroke-dasharray: none; stroke-linecap: butt; stroke-dashoffset: 0; stroke-linejoin: miter; stroke-miterlimit: 4; fill: rgb(255,255,255); fill-rule: nonzero; opacity: 1; visibility: hidden;" vector-effect="non-scaling-stroke"  x="-500" y="-460" rx="0" ry="0" width="1000" height="920" />
</g>
<g transform="matrix(Infinity NaN NaN Infinity 0 0)" id="127a1b68-27b0-41b3-b6f2-9023b998e3a3"  >
</g>
<g transform="matrix(3.97 0 0 3.97 500 460)"  >
<g style="" vector-effect="non-scaling-stroke"   >
		<g transform="matrix(1 0 0 1 40.94 -0.01)"  >
<path style="stroke: none; stroke-width: 1; stroke-dasharray: none; stroke-linecap: butt; stroke-dashoffset: 0; stroke-linejoin: miter; stroke-miterlimit: 4; fill: rgb(60,139,217); fill-rule: nonzero; opacity: 1;" vector-effect="non-scaling-stroke"  transform=" translate(-166.5, -113.46)" d="M 85.9 28.6 C 88.30000000000001 22.3 91.60000000000001 16.5 96.5 11.8 C 116.1 -7.300000000000001 148.5 -2.5 161.8 21.5 C 171.8 39.7 182.4 57.5 192.70000000000002 75.5 C 209.9 105.4 227.3 135.3 244.3 165.3 C 258.6 190.4 243.10000000000002 222.10000000000002 214.70000000000002 226.4 C 197.3 229 181 221 172 205.4 C 156.9 179.1 141.7 152.8 126.6 126.60000000000001 C 126.3 126.00000000000001 125.89999999999999 125.50000000000001 125.5 125.00000000000001 C 123.9 123.70000000000002 123.2 121.80000000000001 122.2 120.10000000000001 C 115.5 108.30000000000001 108.60000000000001 96.60000000000001 101.9 84.9 C 97.60000000000001 77.30000000000001 93.10000000000001 69.80000000000001 88.80000000000001 62.2 C 84.9 55.400000000000006 83.10000000000001 48 83.30000000000001 40.2 C 83.6 36.2 84.1 32.2 85.9 28.6" stroke-linecap="round" />
</g>
		<g transform="matrix(1 0 0 1 -57 0.68)"  >
<path style="stroke: none; stroke-width: 1; stroke-dasharray: none; stroke-linecap: butt; stroke-dashoffset: 0; stroke-linejoin: miter; stroke-miterlimit: 4; fill: rgb(250,188,4); fill-rule: nonzero; opacity: 1;" vector-effect="non-scaling-stroke"  transform=" translate(-68.55, -114.15)" d="M 85.9 28.6 C 85 32.2 84.2 35.800000000000004 84 39.6 C 83.7 48 85.8 55.8 90 63.1 C 101 82 112 101 122.9 120 C 123.9 121.7 124.7 123.4 125.7 125 C 119.7 135.4 113.7 145.7 107.6 156.1 C 99.19999999999999 170.6 90.8 185.2 82.3 199.7 C 81.89999999999999 199.7 81.8 199.5 81.7 199.2 C 81.60000000000001 198.39999999999998 81.9 197.7 82.10000000000001 196.89999999999998 C 86.2 181.89999999999998 82.80000000000001 168.59999999999997 72.50000000000001 157.2 C 66.20000000000002 150.29999999999998 58.20000000000002 146.39999999999998 49.000000000000014 145.1 C 37.000000000000014 143.4 26.400000000000013 146.5 16.900000000000013 154 C 15.200000000000014 155.3 14.100000000000012 157.2 12.100000000000012 158.2 C 11.700000000000012 158.2 11.500000000000012 158 11.400000000000013 157.7 C 16.200000000000014 149.39999999999998 20.900000000000013 141.1 25.700000000000014 132.79999999999998 C 45.5 98.4 65.3 64 85.2 29.7 C 85.4 29.3 85.7 29 85.9 28.6" stroke-linecap="round" />
</g>
		<g transform="matrix(1 0 0 1 -82.73 72.03)"  >
<path style="stroke: none; stroke-width: 1; stroke-dasharray: none; stroke-linecap: butt; stroke-dashoffset: 0; stroke-linejoin: miter; stroke-miterlimit: 4; fill: rgb(52,168,82); fill-rule: nonzero; opacity: 1;" vector-effect="non-scaling-stroke"  transform=" translate(-42.83, -185.5)" d="M 11.8 158 C 13.700000000000001 156.3 15.5 154.5 17.5 152.9 C 41.8 133.70000000000002 78.3 147.6 83.6 178 C 84.89999999999999 185.3 84.19999999999999 192.3 82 199.3 C 81.9 199.9 81.8 200.4 81.6 201 C 80.69999999999999 202.6 79.89999999999999 204.3 78.89999999999999 205.9 C 69.99999999999999 220.6 56.89999999999999 227.9 39.69999999999999 226.8 C 20 225.4 4.5 210.6 1.8 191 C 0.5 181.5 2.4 172.6 7.3 164.4 C 8.3 162.6 9.5 161 10.6 159.20000000000002 C 11.1 158.8 10.9 158 11.8 158" stroke-linecap="round" />
</g>
</g>
</g>
</svg>